<svg width="212" height="160" viewBox="0 0 212 160" fill="none" xmlns="http://www.w3.org/2000/svg">
<g clip-path="url(#clip0_578_11289)">
<rect width="160" height="212" transform="translate(0 160) rotate(-90)" fill="white"/>
<path d="M65.0851 1.81474C46.4665 3.89685 28.2019 8.42818 10.7614 15.2921C2.15228 16.4368 -4.46192e-06 57.9487 -3.49422e-06 80.0869C-2.52653e-06 102.225 2.28142 143.607 10.7614 144.774C28.2067 151.61 46.4705 156.119 65.0851 158.186C108.303 163.544 152.162 157.144 192.07 139.655C197.214 137.372 201.391 133.342 203.864 128.273C207.545 120.627 212 106.005 212 80.0869C212 54.169 207.545 39.4605 203.821 31.8147C201.348 26.7457 197.171 22.715 192.027 20.4324C152.14 2.92191 108.297 -3.50831 65.0851 1.81474ZM190.843 23.0458C192.359 23.7226 193.586 24.9163 194.308 26.4152C197.257 32.3763 204.682 50.3461 204.768 79.9789C204.854 109.612 197.257 127.495 194.308 133.543C193.587 135.047 192.36 136.248 190.843 136.934C151.468 154.207 108.189 160.541 65.5371 155.27C48.0017 153.257 30.7732 149.123 14.2266 142.959C20.6404 134.601 22.4268 99.5253 22.4268 80.0869C22.4268 60.6484 20.6404 25.4864 14.2266 17.1279C30.7765 10.9752 48.0037 6.84186 65.537 4.81691C108.179 -0.487035 151.457 5.80894 190.843 23.0458Z" fill="#E2E2E2"/>
<path d="M13.3223 16.0922C20.4678 22.2693 22.4264 59.4831 22.4264 80.0878C22.4264 100.693 20.4678 137.734 13.3223 143.911L22.2112 146.395C22.2112 146.395 32.8004 132.766 32.8004 80.0878C32.8004 27.4096 22.2112 13.6947 22.2112 13.6947L13.3223 16.0922Z" fill="#E2E2E2"/>
<path d="M22.8359 74.7728C22.8359 79.3948 22.6637 83.9953 22.3193 88.5741C21.7813 111.749 19.0479 144.881 11.2135 144.881C11.0844 144.881 10.9768 144.881 10.8477 144.881C11.2566 145.054 12.2036 145.442 13.6456 146.004C15.613 144.337 17.025 142.106 17.6919 139.611C19.7914 133.112 21.1489 126.395 21.7382 119.589C22.6206 112.224 23.1372 104.816 23.3739 97.4078C23.7829 84.9672 23.2448 72.5266 22.5776 60.1076C22.8359 64.9672 22.8789 69.8916 22.8359 74.7728Z" fill="white"/>
<path d="M10.7606 20.0228C9.49016 22.3113 8.62365 24.803 8.19938 27.3878C7.35999 30.9299 6.75736 34.5152 6.24081 38.1869C5.18619 45.5303 4.64812 53.1977 4.30375 60.6491C3.61733 75.0464 3.8114 89.4723 4.88487 103.846C5.33685 109.548 5.89644 115.25 6.77888 120.887C5.57045 109.696 4.9526 98.4494 4.92792 87.1934C4.68319 72.6179 5.32288 58.0409 6.84345 43.5433C7.29543 39.5908 7.79045 35.6167 8.50071 31.7075C8.84507 29.7204 9.254 27.755 9.72751 25.8111C10.0608 24.2243 10.5735 22.6808 11.2556 21.2107C13.2826 26.5393 14.6207 32.1066 15.2374 37.7766C15.9046 41.9018 16.3996 46.0487 16.8946 50.1956C16.6148 45.1848 16.2059 40.1956 15.5172 35.228C15.0853 31.93 14.4818 28.657 13.7092 25.4224C13.3719 23.8307 12.8818 22.2756 12.2457 20.7787C12.0089 20.282 11.4278 18.9645 10.7176 19.85L10.7606 20.0228Z" fill="white"/>
<path d="M40 152L19 144.5L30.5 82.5L19 15L40 7.5L73 3L104 0.999996L141.5 5.49999L169.5 13L195 23.5L202 32.5L205 57L207.5 74L205 103L202 119.5L195 136L188 139L156 150L126 156L102 157.5L80 157.5L40 152Z" fill="#E2E2E2"/>
</g>
<defs>
<clipPath id="clip0_578_11289">
<rect width="160" height="212" fill="white" transform="translate(0 160) rotate(-90)"/>
</clipPath>
</defs>
</svg>
