<svg width="378" height="184" viewBox="0 0 378 184" fill="none" xmlns="http://www.w3.org/2000/svg">
<path d="M189.49 168.115C293.601 168.115 378 152.335 378 132.87C378 113.404 293.601 97.6237 189.49 97.6237C85.3792 97.6237 0.980469 113.404 0.980469 132.87C0.980469 152.335 85.3792 168.115 189.49 168.115Z" fill="#C9A855" fill-opacity="0.15"/>
<path d="M190.306 14.1896C190.306 14.1896 196.819 12.3693 198.84 12.8658C200.861 13.3622 251.449 25.1935 254.297 25.8673C257.146 26.541 270.23 27.6875 270.23 27.6875L261.897 33.3727C261.897 33.3727 213.366 27.2738 210.931 26.6592C208.496 26.0445 190.306 14.1896 190.306 14.1896Z" fill="#E4EEBF"/>
<path d="M181.571 18.9055C181.571 18.9055 193.757 14.1777 200.483 15.8679L226.072 22.2741C233.991 24.2598 259.285 29.2949 259.285 29.2949H269.639L264.556 49.3881C264.556 49.3881 280.241 53.9623 280.702 57.3072C281.163 60.6521 277.345 81.0763 278.101 85.8041C278.858 90.5319 282.971 92.1985 279.922 101.796C276.872 111.393 272.605 118.095 249.002 114.124C225.398 110.152 210.305 108.32 205.589 96.1344C200.873 83.9484 181.571 18.9055 181.571 18.9055Z" fill="#A08744"/>
<path d="M186.76 14.5914L200.163 1.58994L204.891 24.8035L239.735 42.5446L257.701 37.9823C257.701 37.9823 253.221 48.9508 252.725 50.9838C252.228 53.0167 246.614 83.9957 246.614 83.9957L253.552 97.8482L275.891 87.8962C280.264 85.9696 301.587 83.5348 304.837 84.3503C308.087 85.1659 310.428 93.0968 306.362 97.2573C302.296 101.418 267.676 103.533 253.446 106.89C239.215 110.247 223.991 114.136 212.55 97.8482C201.109 81.5609 186.76 14.5914 186.76 14.5914Z" fill="#E4EEBF"/>
<path d="M146.361 53.4777L67.4533 66.0891C67.4533 66.0891 45.8235 61.9641 40.4811 78.1096C35.1387 94.2551 46.3909 134.631 62.5482 129.607C78.7055 124.584 79.3083 122.149 79.3083 122.149L172.092 108.486C172.092 108.486 196.605 134.69 226.166 135.671C255.727 136.652 327.814 115.152 327.814 115.152L311.172 116.759C311.172 116.759 316.656 102.576 318.488 100.46C320.32 98.3447 313.619 88.889 313.619 88.889C310.72 86.6181 307.096 85.4758 303.419 85.6741C297.509 86.1351 274.626 89.48 274.626 89.48C274.626 89.48 257.251 99.3729 254.817 98.7701C252.382 98.1674 248.422 85.5086 250.089 83.9839C251.755 82.4592 257.559 64.4817 257.559 64.4817L257.724 37.9823C257.724 37.9823 240.196 45.8895 237.158 45.074C234.121 44.2585 211.415 31.5052 211.415 31.5052L200.163 1.54266L188.426 14.7924L179.136 2.76007L171.832 0.92804C171.832 0.92804 148.193 30.6305 148.5 50.1209L146.361 53.4777Z" fill="#C9A855"/>
<path d="M235.137 159.239L223.259 152.372L225.174 161.059C225.174 161.059 232.395 168.47 240.823 171.011C249.25 173.552 259.403 177.831 264.273 179.06C269.142 180.29 270.277 177.524 271.494 176.105C272.712 174.687 278.905 168.907 279.614 166.059C280.324 163.21 282.77 153.471 282.77 153.471L235.137 159.239Z" fill="#A08744"/>
<path d="M61.8981 98.5456C64.6048 112.611 63.0092 124.761 58.3523 125.731C53.6954 126.7 47.7147 115.944 44.9489 101.867C42.1831 87.7898 43.8379 75.6275 48.4948 74.7411C53.1517 73.8546 59.1796 84.4449 61.8981 98.5456Z" fill="#483A14"/>
<path d="M48.3885 101.808C45.8946 88.8654 47.0765 77.6841 50.9061 75.2374C50.2045 74.7881 49.3704 74.5921 48.5421 74.6819C43.8143 75.5684 42.2778 87.6834 44.9963 101.808C47.7148 115.932 53.7073 126.629 58.3996 125.671C58.7786 125.546 59.1341 125.358 59.4516 125.116C55.2202 122.87 50.6224 113.592 48.3885 101.808Z" fill="#A08744"/>
<path d="M312.85 112.54C305.249 115.063 297.525 117.201 289.708 118.946C262.688 125.128 220.942 124.596 205.919 113.935C190.896 103.273 185.826 95.9453 186.015 77.8732C186.204 59.8012 166.229 56.9408 166.229 56.9408C166.229 56.9408 174.857 62.1296 176.867 74.6701C178.876 87.2107 162.908 96.2408 158.7 99.0893C154.492 101.938 80.3838 115.306 80.0765 107.895C79.7692 100.484 72.2638 90.8156 72.2638 90.8156C72.2638 90.8156 76.8261 107.079 71.2355 119.052C69.9025 121.933 67.8229 124.405 65.2125 126.211C62.6021 128.017 59.556 129.092 56.3901 129.324C58.3455 130.14 60.526 130.24 62.5481 129.607C78.6936 124.596 79.3082 122.149 79.3082 122.149L172.092 108.486C172.092 108.486 196.605 134.69 226.166 135.671C255.727 136.652 327.814 115.152 327.814 115.152L311.172 116.76C311.172 116.76 311.834 114.939 312.85 112.54Z" fill="#A08744"/>
<path d="M82.9257 91.3357C82.9257 91.3357 84.1077 109.313 82.3229 112.764C80.5382 116.216 86.0697 113.273 86.0697 113.273C86.0697 113.273 87.9018 100.779 82.9257 91.3357Z" fill="#A08744"/>
<path d="M90.0288 90.2719C90.0288 90.2719 91.2107 108.249 89.426 111.701C87.6412 115.152 93.1728 112.209 93.1728 112.209C93.1728 112.209 95.0048 99.7157 90.0288 90.2719Z" fill="#A08744"/>
<path d="M97.1323 89.2082C97.1323 89.2082 98.3142 107.186 96.5295 110.637C94.7447 114.088 100.276 111.145 100.276 111.145C100.276 111.145 102.108 98.652 97.1323 89.2082Z" fill="#A08744"/>
<path d="M104.224 88.1444C104.224 88.1444 105.406 106.122 103.622 109.573C101.837 113.025 107.38 110.081 107.38 110.081C107.38 110.081 109.2 97.5882 104.224 88.1444Z" fill="#A08744"/>
<path d="M111.327 87.0806C111.327 87.0806 112.509 105.058 110.725 108.509C108.94 111.961 114.483 109.018 114.483 109.018C114.483 109.018 116.303 96.5244 111.327 87.0806Z" fill="#A08744"/>
<path d="M118.432 86.0287C118.432 86.0287 119.614 104.006 117.829 107.458C116.044 110.909 121.576 107.966 121.576 107.966C121.576 107.966 123.408 95.4843 118.432 86.0287Z" fill="#A08744"/>
<path d="M125.535 84.9531C125.535 84.9531 126.717 102.931 124.932 106.382C123.147 109.833 128.679 106.89 128.679 106.89C128.679 106.89 130.511 94.3969 125.535 84.9531Z" fill="#A08744"/>
<path d="M132.639 83.8894C132.639 83.8894 133.821 101.867 132.036 105.318C130.251 108.769 135.783 105.826 135.783 105.826C135.783 105.826 137.615 93.3332 132.639 83.8894Z" fill="#A08744"/>
<path d="M139.742 82.8256C139.742 82.8256 140.865 100.803 139.139 104.254C137.414 107.706 142.886 104.763 142.886 104.763C142.886 104.763 144.718 92.2694 139.742 82.8256Z" fill="#A08744"/>
<path d="M146.834 81.7618C146.834 81.7618 148.016 99.7394 146.231 103.191C144.446 106.642 149.99 103.699 149.99 103.699C149.99 103.699 151.81 91.2056 146.834 81.7618Z" fill="#A08744"/>
<path d="M153.937 80.6981C153.937 80.6981 155.119 98.6756 153.335 102.127C151.55 105.578 157.093 102.635 157.093 102.635C157.093 102.635 158.913 90.1419 153.937 80.6981Z" fill="#A08744"/>
<path d="M161.041 79.6343C161.041 79.6343 162.223 97.6119 160.438 101.063C158.653 104.514 164.185 101.571 164.185 101.571C164.185 101.571 166.017 89.0781 161.041 79.6343Z" fill="#A08744"/>
<path d="M168.144 78.5706C168.144 78.5706 169.326 96.5481 167.542 99.9994C165.757 103.451 171.288 100.508 171.288 100.508C171.288 100.508 173.12 88.0144 168.144 78.5706Z" fill="#A08744"/>
<path d="M186.086 149.972L177.257 149.062C177.257 149.062 175.319 153.317 178.983 154.239C182.647 155.161 191.157 158.967 195.022 159.121C198.093 159.005 201.132 158.46 204.052 157.501L202.338 152.313L186.086 149.972Z" fill="#A08744"/>
<path d="M240.917 179.249C240.917 179.249 229.854 170.006 223.755 168.47C217.656 166.933 215.93 173.848 215.93 173.848C215.93 173.848 218.176 182.122 220.197 182.689C222.218 183.256 224.57 182.488 229.038 183.599C233.506 184.71 240.917 179.249 240.917 179.249Z" fill="#A08744"/>
<path d="M285.264 150.41C285.264 150.41 261.341 152.845 249.014 152.998C236.686 153.152 223.259 152.372 223.259 152.372C227.983 160.318 235.571 166.155 244.463 168.683C259.545 173.103 261.98 178.895 269.438 174.935C276.896 170.976 285.264 150.41 285.264 150.41Z" fill="#C9A855"/>
<path d="M201.629 148.259C198.991 146.864 196.219 145.739 193.355 144.902C189.703 143.98 183.616 144.181 180.661 145.599C177.706 147.018 175.472 149.05 178.628 150.327C181.784 151.603 187.871 154.807 193.863 155.055C196.962 155.247 200.073 155.008 203.106 154.346L201.629 148.259Z" fill="#C9A855"/>
<path d="M240.918 179.249C240.776 178.067 225.387 165.858 221.652 166.543C217.917 167.229 217.007 168.293 216.475 170.42C215.943 172.548 221.274 178.422 221.274 178.422C221.274 178.422 227.822 179.415 228.732 179.604C229.642 179.793 240.918 179.249 240.918 179.249Z" fill="#C9A855"/>
</svg>
